<svg id="Layer_1" data-name="Layer 1" xmlns="http://www.w3.org/2000/svg" viewBox="0 0 791.96 645.15"><defs><style>.cls-1{fill:#e51f24;}.cls-2{fill:#e41f27;}.cls-3{fill:#e41f26;}.cls-4{fill:#d32732;}.cls-5{fill:#ca2e36;}.cls-6{fill:#c33935;}.cls-7{fill:#98434a;}.cls-8{fill:#9f3d49;}.cls-9{fill:#7e5252;}.cls-10{fill:#fff;}.cls-11{fill:#dc2631;}.cls-12{fill:#de2b35;}.cls-13{fill:#8a494c;}.cls-14{fill:#d12933;}</style></defs><title>logo_umaki_light</title><path class="cls-1" d="M451.65,176.09c1.29,27-22.71,50.3-49.39,50.7-25.7.39-51.53-19.88-51.45-50.91a50.44,50.44,0,0,1,50.68-50.24C432,125.91,452.69,151.16,451.65,176.09Z"/><path class="cls-2" d="M631.12,170.63c-11.71-.14-23.08-2.67-34.48-4.89A344.09,344.09,0,0,1,481.33,120.6a346.83,346.83,0,0,1-79.64-67.21c-1.85-2.1-2.74-2.92-5-.14-28.42,34.87-62.93,62.29-102.63,83.27a343,343,0,0,1-88.31,31.74,34.51,34.51,0,0,1-3.95.37,37.91,37.91,0,0,1-9.67.85c-1.64-.11-3.48-.25-2.62-2.8,32.78-7.22,64.22-18.11,93.76-34.2a310.65,310.65,0,0,0,88.18-71.42c5.08-5.93,9.66-12.27,14.64-18.3,2.45-3,3.21-5.66.19-8.67a18.18,18.18,0,0,1-1.93-2.89c-3.48-5.09-2.47-7.29,3.77-8.26,6.54-1,10.94,1.25,14.91,7A316.17,316.17,0,0,0,482,108.79a334.09,334.09,0,0,0,117.2,52c9.38,2.17,18.84,4,28.26,5.94a10.3,10.3,0,0,0,5.18,1.41c1,.06,2.67-.58,2.78,1s-1.46,1.89-2.85,1.87A4,4,0,0,1,631.12,170.63Z"/><path class="cls-3" d="M640.13,154.65c-11.25-2.23-22-6.18-32.64-10.26A348.24,348.24,0,0,1,495.06,74.85a314.66,314.66,0,0,1-40.68-45c-3.57-4.87-2.23-7.62,3.82-8.4,6.26-.81,10.58.92,14.67,6.5,35.77,48.73,81.2,85.41,137.08,109,9.78,4.12,19.9,7.27,29.65,11.41,2.24,2.26,5.5,2,8.16,3.24,1.1.51,2.33.78,2,2.32s-1.58,1.66-2.75,1.58A45.49,45.49,0,0,1,640.13,154.65Z"/><path class="cls-4" d="M640.13,154.65h9.7c-3.3-4-9-1.41-10.23-6.33,8.82,2.31,17.62,4.68,26.46,6.91a360.61,360.61,0,0,0,58,9.33c1.48.12,2.93.47,4.4.71a2.28,2.28,0,0,1-2.58,1.74c-4.2-.15-8.43.45-12.61-.36A292.37,292.37,0,0,1,640.13,154.65Z"/><path class="cls-5" d="M189.51,166.68c.73,2.95,3.15,1.69,4.89,1.84,2.45.2,4.93.09,7.39.11-5.23,2.29-10.93,2.5-16.44,3.27-8.83,1.25-17.63,3.09-26.63,2.74-3.22.85-6.5.23-9.75.36-1.11,0-1.9-.42-1.58-1.77Z"/><path class="cls-6" d="M631.12,170.63c1.15-.38,2.65.24,3.54-1.31-1.92-2.23-6,1.31-7.23-2.64l44.47,4.68c-2.81,3.36-6.41,1.16-9.67,1.37C651.82,172.61,641.37,173.14,631.12,170.63Z"/><path class="cls-7" d="M713.23,166.65c5-.91,10.32,1.22,15.19-1.38,16,.33,31.93.89,47.9.38l.65.42c-.23.12-.46.24-.7.35-18.22,1.07-36.45,2-54.71,1.28C718.76,167.58,715.9,167.81,713.23,166.65Z"/><path class="cls-8" d="M147.39,173.23c3.51,2.63,7.6.56,11.32,1.41-14.2,2.1-28.5,1.71-42.78,1.5-5.49-.08-11-.37-16.46-.57-.33-.25-.42-.48-.29-.69s.25-.31.38-.31C115.52,174.78,131.47,174.4,147.39,173.23Z"/><path class="cls-9" d="M662.23,172.73c3.17-.8,6.7.93,9.67-1.37h31.26C689.52,172.4,675.91,174.28,662.23,172.73Z"/><path class="cls-10" d="M154.41,455.16c-3.38,2.67-5.5,6.13-7.36,9.77-1.12,2.2-1,3.74,2.06,4,13.81,1,25.81-3.33,36.25-12.22,3.12-2.65.84-3.94-1.64-4.7-7-2.14-14.42-2.29-21.51-4-6.24-1.53-12.79-2.75-16.33-9.24-.91-1.68-2-3.61-1-5.12,1.44-2.08,3.4,0,4.81.6,7.47,3.34,15.6,3,23.38,4.56a52.89,52.89,0,0,1,6.83,1.35c5.51,1.89,11,3.71,12.53,10.63,1.89,8.66,1.63,16.69-6.41,22.14-10.85,7.34-22.78,10.75-35.94,8-5.46-1.16-12.53-11.2-11.62-16.25C139.57,458.47,146.66,454.21,154.41,455.16Z"/><path class="cls-10" d="M224.67,466.73c-4.33,2-6.42,5.73-9.77,7.78-2.09,1.29-3.65,4.86-6.73,2.86-3.69-2.4-7.56-4.9-7.39-10.37.19-5.82,0-11.65-.06-17.48,0-1.65-.56-3.34-.36-4.95.22-1.87-3.13-4.89.23-5.25a6.83,6.83,0,0,1,7.41,5.29c1,5.1.58,10.29.68,15.45,0,1.23-.67,2.83.84,3.59s2.6-.44,3.48-1.33c5.31-5.33,12.22-9.32,14.06-17.58.64-2.86,3.26-2.2,5.35-1.22,1.88.88,4.56,1.43,3.22,4.48-4.49,10.22-1.73,20.65-.65,30.92.4,3.79-.64,4-3.43,3.54-4.37-.66-7.57-2.29-6.93-7.65A73.59,73.59,0,0,0,224.67,466.73Z"/><path class="cls-10" d="M185.15,430.27c0-7.72-.78-8.76-8.17-9-9.71-.32-18.8,2.14-26.6,8-3.48,2.62-4.35.9-4.72-2-.49-3.8.55-7.26,3.84-9.61,10-7.11,21.17-9.17,33.05-7.18,4,.66,8.35,2,9.34,6.93C192.74,421.69,190,426.86,185.15,430.27Z"/><path class="cls-10" d="M127.19,598.67c4.51.82,5.79,3.7,7.14,8,1.65,5.21,6.54,8.87,11.39,12.84,0-6.49,0-12.32,0-18.15,0-1.12-1.35-3.08.82-3.16a3.33,3.33,0,0,1,3.66,2.7c.69,4.29.35,8.59.25,12.89,0,2.13-1.67,4.35,1.23,6.33,1.24.84,0,3.48-.83,5.08s-2.64,1-4,.84c-2.81-.37-4.65-2.43-6.54-4.25s-3.62-3.87-5.65-6.06c-1.68,2.59-.55,5.15-.59,7.6,0,1.18.89,3.07-1.17,3.07-1.49,0-3.44-.54-3.56-2.74a47.54,47.54,0,0,1,0-5.47c.32-4.92,1.3-9.85-2-14.34C126.27,602.41,126.56,600.34,127.19,598.67Z"/><path class="cls-10" d="M164,621.56c-2.78.5-3.7,4.79-6.91,3.15-3.36-1.73-2-5.28-2.35-8.09-.32-2.23-.32-4.51-.46-6.82,3.28,1.44,3.28,1.44,4.1,9.62a14.27,14.27,0,0,0,6.55-6.43c.51-1,.61-2.48,2.26-1.81,1.39.56,1.81,1.45,1.24,3.13-1,3-.21,6.25-.34,9.38-.05,1.14,1.25,2.91-.8,3.29s-2.86-1.14-3-3.05C164.29,623.14,164.12,622.36,164,621.56Z"/><path class="cls-10" d="M200.26,620.32c-3.2-2.31-8.18-.7-8.82-5.26a4.74,4.74,0,0,1,3.08-5.19,9.35,9.35,0,0,1,9.74,1.64c-3.53,1-7.08.57-9.51,3.82,2.47.63,4.66,1,6.72,1.77a4.39,4.39,0,0,1,3.1,4.12,4.22,4.22,0,0,1-3,4.14,13,13,0,0,1-9.66-.18c-1.08-.49-2.33-1.36-2-2.54a2.27,2.27,0,0,1,3.22-1.34C195.71,623,197.55,621.25,200.26,620.32Z"/><path class="cls-10" d="M209.62,606.79c-.18-1.9-1.1-3.67.89-3.89,1.6-.18,2.66,1.22,2.7,2.93,0,2.18-.2,4.23,2.84,4.89,1.5.33,1.16,2.21.1,2.72-4.29,2.06-2.36,5-1.37,7.84.46,1.31,1.65,2.49.4,4.13-.87,1.14-1.72.83-2.58.48-1.6-.67-2.81-1.69-2.76-3.71s0-4-.14-6c0-.73.36-1.87-.82-2-3.59-.34-2.77-2.34-.9-3.41C210.26,609.49,209.64,607.86,209.62,606.79Z"/><path class="cls-10" d="M223.64,612.49c2-1.28,2.3-4.75,5.3-2.79,1.89,1.23.26,2.67.12,4-.05.41.16,1.17-1,1.09-4-.27-4-.18-4.07,3.49a39.3,39.3,0,0,1-.06,4.48c-.14,1.1,1,3-1.16,3.11a2.7,2.7,0,0,1-3-3.1c.26-4.14.54-8.29-.45-12.38-.17-.68-.29-1.33.59-1.47C222.31,608.54,222.82,610.45,223.64,612.49Z"/><path class="cls-10" d="M117.8,610.87a24,24,0,0,0,3.16,0c1.49-.25,2.64,0,3,1.67s-.6,2.38-2.14,2.61a39.3,39.3,0,0,1-5.32.8c-1.35,0-3.63,1.15-3.7-1.67-.06-2.45,1.39-3.53,3.78-3.45Z"/><path class="cls-10" d="M248.81,612.44c-.11-1.19-1.82-.89-3-.72-.15-2.18-1.93-1.82-3.25-1.84-4.18-.07-10.12,4.88-10.77,9-.31,1.94-.68,4.33,1.2,5.54a5.47,5.47,0,0,0,6.53-.4c1.64-1.26,3.25-2.57,5.31-4.21,0,2,0,3.26,0,4.56,0,1.47-.43,3.23,1.67,3.53s2.61-1.72,2.66-2.94A93.58,93.58,0,0,0,248.81,612.44Zm-10,9c-.91.35-2,.91-2.73,0s0-1.81.61-2.6a21.41,21.41,0,0,1,9.1-7,.68.68,0,0,1,0-.14l.09.09-.11,0A10.16,10.16,0,0,1,238.77,621.4Z"/><path class="cls-10" d="M204.79,280.36c.2-17.47.59-30.29-.87-43.07a13.24,13.24,0,0,0-.39-2.43c-.47-1.52-2.58-3.09-1.27-4.43s3.69-.2,5.64,0c5.31.7,8.24,4,10.06,8.56,2.5,6.32,4.31,12.67,4.23,19.72-.22,19.92,1.57,39.85.07,59.79-.17,2.3,1.17,3.3,2.92,4.09a23.84,23.84,0,0,0,10.61,2.44c9.58-.29,19.25,0,28.36-3.92,3.46-1.47,4.91-3.7,4.8-7.66-.5-16.79-.88-33.6-.91-50.4,0-9,.65-17.93,1.28-26.88.37-5.27,2.55-6.48,7.61-4.88,12.06,3.83,16.68,12.48,13.66,25.88-1.75,7.76-3.86,15.44-5.53,23.23-1.76,8.21-.74,16.58-.77,24.87-.05,11.3.55,22.61.74,33.92a58.68,58.68,0,0,0,.91,8.38c.56,3.39-1.26,4.37-4.08,3-4.57-2.23-8.62-5.05-9.36-10.75a34.07,34.07,0,0,0-1.3-4.77c-1-3.39-2.41-2.84-4.36-.69-13.06,14.42-36.36,15.62-51.72,3-7.06-5.79-8-13.9-9.13-21.86C204.15,302.37,205.05,289,204.79,280.36Z"/><path class="cls-10" d="M624.9,543q-44.37-9.54-89.46-14.74-42.39-4.85-85.06-6.44c-25-.91-49.95-1.16-74.91-.32q-43.62,1.47-87,6.25A1071.11,1071.11,0,0,0,181.23,545c-14.9,3.22-29.74,6.72-44.53,10.4-3.34.83-5.53.35-7.14-2.52s-.11-5.08,1.87-7.06a11.38,11.38,0,0,1,5.53-3.07c29-7.29,58.4-12.48,87.95-16.91q37.74-5.65,75.78-8.68c24.22-1.91,48.49-3.2,72.8-3.48,31-.36,61.93,0,92.82,2.32A915,915,0,0,1,571.1,529.51c18.74,3.61,37.31,7.86,55.81,12.48C627,543.91,626,543.41,624.9,543Z"/><path class="cls-10" d="M321.36,314.53a291.64,291.64,0,0,1,16-26.9c4.63-6.69,6.85-7.43,13-5.15,5,1.85,5.23,6,5.52,10.16s.08,8,.08,12c0,1.36,0,2.86,1.25,3.6,1.47.85,2.41-.63,3.4-1.36,4.68-3.46,9-7.44,14-10.4,3-1.75,6-2.68,9.49-1.65,3.26,1,5.35,2.74,6.12,6.36,1.36,6.46.7,12.94.73,19.41,0,7-.37,14,2.07,20.72a4,4,0,0,1-1.32,4.94c-3.88,2.84-7.16,7.84-12.9,5.73s-4.93-7.54-4.91-12.36c0-7.47-.61-14.95.27-22.43.17-1.42.49-3.24-1.09-4.05-1.82-.94-3.27.55-4.31,1.67-6.32,6.82-12.63,13.66-18.66,20.73-2,2.28-3.65,4.38-6.89,3.9s-3.55-3.56-4.33-6c-2-6.06-.64-12.2-.29-18.32.09-1.5,0-3,0-4.5,0-1.92-.35-3.87-2.31-4.56s-2.94.89-4.07,2.18c-8.31,9.4-13,20.76-17.61,32.18-.63,1.54-.42,4.26-2.64,4.28s-3.92-1.59-5.22-3.42c-1.87-2.64-3.16-5.44-3-8.79q1.51-26.43,1-52.9c-.06-2.74,1.11-3,3.3-2.6a13.49,13.49,0,0,1,11,11.87C320,297.43,320.63,306,321.36,314.53Z"/><path class="cls-10" d="M522.22,294.18c6.32-6,12.14-10.61,18.73-14.21,4.17-2.27,14.67,3.54,14.88,8.22.1,2.18-1.8,3.47-3,5-7.38,9.37-17.07,16.27-26,23.93-5.48,4.68-5.46,5.36.79,8.88a120.17,120.17,0,0,0,20.13,8.48,3,3,0,0,0,1.43.35c8.3-1.95,4,2.64,2.9,5.56a26.66,26.66,0,0,1-1.26,2.71c-3.18,6-4.65,6.56-10.77,3.68a192.35,192.35,0,0,1-28.2-15.88c-4-2.8-5.46-2.38-7.23,2.19a49.3,49.3,0,0,0-1.72,6.74,12.14,12.14,0,0,1-7,8.51c-2.81,1.38-4.17.59-3.78-2.62a119.75,119.75,0,0,0,.88-16.93c0-1.63.31-3.33-1.58-4.36-4.09-2.23-3.1-5.18-.58-7.7,2.35-2.34,3-4.85,2.94-8-.18-19.13.33-38.28-2.72-57.27a4.1,4.1,0,0,1-.08-1c.18-2.26-2.94-5.42.11-6.55a9.24,9.24,0,0,1,10,2.49c5.08,5.48,6.52,12.26,6.49,19.39-.06,12.46-.38,24.91-.55,37.37,0,1.95-.77,4.47,1.27,5.5,1.68.84,3.31-1.12,4.8-2,4.56-2.7,9.41-5,13.12-8.94,1.28-1.36,4-2.67,2.7-4.73C527.15,290.11,525.41,293.57,522.22,294.18Z"/><path class="cls-10" d="M433.72,463.11a4.42,4.42,0,0,1-.48-.15c-2.81-1.15-5.91-4.94-8.15-3.31-2.81,2-.84,6.5-.52,9.86a40,40,0,0,1,0,8.95c-.3,2.44-1.63,3.31-3.7,2.18-4.33-2.37-8.05-5.28-8-11,.05-4.66-.19-9.32-.12-14a3.81,3.81,0,0,0-2.62-4.17c-4.6-2-8.46-9.32-7.81-14.12.27-2,1.34-1.26,2.5-1,7.22,1.81,7.22,1.79,7.89-5.9.53-6-.47-11.94-1.37-17.86-.18-1.13-.88-2.41.16-3.29s2.18.22,3.21.62c5.74,2.19,9.38,5.64,9.11,12.54-.17,4.47.12,8.95-.55,13.42-.52,3.43.38,5.52,4.47,6.15,6.73,1,13.42,2.3,20.24,2.76,3.37.23,4.72-.89,4.75-4.46.06-8.48-.19-17,1-25.41.26-1.75-1.45-5.4,1.73-5,3,.36,7.26.63,8,5.27.91,5.48,0,11,0,16.44,0,2-.26,4-.35,6-.36,7.35-.38,7.61,6.86,8.46,4.55.54,4.6,4.31,4.95,6.89.42,3-2.91,3.22-5.18,2.93-4.69-.62-6.26,1.36-5.9,5.82.39,4.93-.74,10,1.44,14.75a3.24,3.24,0,0,1-1,4.06c-1.27,1-2.54.25-3.73-.36-1-.53-2.07-1.07-3.06-1.68-3.24-2-8.27-3.11-4.67-8.79.07-.12,0-.33,0-.49.77-11.5.15-12.25-11.44-13.45-4-.42-7.94-.74-11.92-1.05-.91-.07-2.11-.54-2.5.8-.29,1,.76,1.35,1.37,1.81,2.13,1.59,4.3,3.12,6.46,4.68C435.05,463,434.81,463.53,433.72,463.11Z"/><path class="cls-10" d="M589.19,329.67a75.93,75.93,0,0,1-13,15.92c-2.88,2.65-5.78,1.93-6.28-1.82a221,221,0,0,1-.93-53.16c.76-7.1,4.79-10.81,10.5-11.34,3.26-.3,4.66.47,4.61,4.24-.16,13.29,0,26.59.28,39.87C584.41,326.18,583.25,330.64,589.19,329.67Z"/><path class="cls-10" d="M550.09,466.82c-4.15,2-6.19,5.77-9.65,7.77-2.09,1.21-3.46,4.78-6.71,2.78-3.72-2.3-7.52-4.95-7.3-9.94.39-8.8.62-17.56-1.38-26.22-.39-1.71.25-2.73,2.09-2,3.64,1.42,7.09,3,6.94,7.9-.13,4.49.06,9,.19,13.48,0,1.06-.57,2.45.81,3.11s2.19-.17,3.08-1c5.74-5.22,12.47-9.63,14.65-17.77.79-2.94,3-2.51,4.72-1.64s5.26,1,3.75,4.51c-4.4,10.4-1.87,21-.64,31.43.36,3.07-.11,3.43-2.69,3.28-5.6-.33-7.5-2.39-7.68-8C550.19,472.08,551.18,469.63,550.09,466.82Z"/><path class="cls-10" d="M577.72,467.12c-1.69,1.86-4.39,1.2-5.65,3.19,1.18,1.62,2.51,1.06,4,.79A90.47,90.47,0,0,0,589.93,467c1.21-.42,3-.55,2.84-2.19-.16-1.46-1.93-1.56-3.16-1.87-4-1-8.09-1.85-12.08-2.94-3.44-.95-6.59-3.19-6.37-6.74.25-3.86.62-8.13,3.91-11.21,5.88-5.5,20.34-5.39,25.89.37a22.44,22.44,0,0,1,2.28,3.6c-8.35-1.66-15.62-.33-22.2,4.23-1,.7-2.7,1.28-2.12,3,.42,1.22,2,1.14,3,1.28,4.28.59,8.59,1.08,12.68,2.52,5.73,2,9.18,6.35,8.85,10.7-.44,5.7-4.23,9.84-10.44,11.08a48.22,48.22,0,0,1-13.93.68,16.73,16.73,0,0,1-10-4.11c-3.43-3.14-2.89-5.8,1.46-7.16C572.74,467.53,574.91,466.39,577.72,467.12Z"/><path class="cls-10" d="M251.9,467.84c-1.91.48-3.88.82-5.56,2.27a2.1,2.1,0,0,0,2.7,1.38c5.41-1.54,10.82-3.11,16.19-4.79.84-.26,2.21-.78,1.83-1.94a3.41,3.41,0,0,0-2.25-1.6c-3.54-.87-7.17-1.42-10.7-2.34-4.17-1.08-8.88-3.09-8.62-7.64.23-4.07.56-9.05,4.95-12.07,6.79-4.69,19.86-4,25.09,1.7.74.8,1.87,1.52,1.22,3A27.8,27.8,0,0,0,256,449.78c-1.19.76-3.08,1.57-2.75,3.19s2.38,1.45,3.77,1.66c4.59.69,9.19,1.18,13.52,3.13s7.17,4.94,7.38,9.74c.2,4.56-3.29,9-8.45,10.55-7.12,2.11-14.38,2.59-21.53,0a13.63,13.63,0,0,1-4.26-2.5c-3.71-3.28-3.2-5.88,1.37-7.41,1.88-.62,3.87-.93,5.81-1.37C251.86,466.46,252.16,466.88,251.9,467.84Z"/><path class="cls-10" d="M504.36,439.08c-3.11,1.69-5,2.68-6.87,3.74a17.65,17.65,0,0,0-6,24.89c2.62,4,6.46,4.94,10.16,1.88,4.72-3.91,7.93-8.82,8.44-15.26.24-3.13-.91-4-3.69-3.39s-5.48,1.27-8.22,1.93c-2.28.55-3-.22-2.65-2.59.74-4.49,4.94-7.4,11.83-7.95,5.12-.41,7,1.75,9.21,6.09,4.46,8.76,2.75,16.5-2.92,23.5-7.11,8.79-20.35,10.05-27.53,3.2-7.4-7.07-7.15-21.49.61-29.49C491.2,441,496.65,438.68,504.36,439.08Z"/><path class="cls-10" d="M295,454.07c-1.07,1.78-1,3.75-1.07,5.75-.11,5.14-.27,10.29-.6,15.43-.13,2,0,4.67-3.2,4.51s-7.86-4.27-6.89-6.44c3.52-7.92,1.54-16.1,1.29-24.1-.35-11.47-.05-22.91.14-34.37.05-3.24.93-4.55,4.53-3.39,7.87,2.52,10.08,5.55,7.23,13.16s-2.56,15.62-3.2,23.51c-.14,1.77-.34,3.73,1.72,4.79.29.25.4.49.32.75S295.12,454.07,295,454.07Z"/><path class="cls-10" d="M295,454.07l0-1.15a78.34,78.34,0,0,1,4.24-7.27c1.78-2.47,3.16-5.26,6.75-6.13,9.32-2.26,11.69-.95,12.48,8.45.84,9.94-.53,20,.93,29.9.18,1.26-.16,1.75-1.52,1.81-6,.23-10.08-3.74-9.94-9.89.13-5.47.52-10.94.7-16.42.05-1.75.84-4-.91-5.11-1.95-1.29-4.26-.74-6.11.55C299.3,450.42,297.2,452.3,295,454.07Z"/><path class="cls-10" d="M337.31,453.76c0,4.33-1.4,9.34.3,12.84,3.11,6.42-2.19,8.28-4.59,11.68-2,2.84-4.25,2.15-4.63-1.11-1.28-10.93-1.83-21.91-.14-32.85a6.43,6.43,0,0,1,2.84-4.53,5.75,5.75,0,0,1,4.77-.82c2.08.6,1,2.51,1.05,3.8.15,3.66.06,7.33.06,11Z"/><path class="cls-10" d="M577.52,271.28c-6.85-.56-10.29-6.34-7.16-12.2A33.43,33.43,0,0,1,580,247.87c3.18-2.35,10.22.18,11.26,3.86a1.45,1.45,0,0,1-.55,1.63c-4.4,4.49-6.66,10.26-9.47,15.69C580.42,270.71,579.43,271.79,577.52,271.28Z"/><path class="cls-11" d="M454.15,619.68l.49.08c9.68.89,9.74.8,9.58-8.79a94.75,94.75,0,0,1,.25-10c.11-1.25-.51-3.42,1.68-3.55a4.6,4.6,0,0,1,4.4,2.76c.15.29.38.66.32.93-1.78,8.15-2.07,16.39-1.93,24.71,0,1.92-1.94,1.18-2.47.35-1.53-2.37-2.86-1.09-4.84-.63-6.68,1.56-13.08.13-12.78-8.84.19-5.49-.09-11-.11-16.47,0-1-1.34-2.38.26-3.06,1.4-.59,2.59.33,3.33,1.52a9.76,9.76,0,0,1,.74,2.33c.83,4.61.12,9.26.41,13.88C453.58,616.52,452.81,618.26,454.15,619.68Z"/><path class="cls-12" d="M431.26,605.25c2.23.22,1.27,3.09,3.17,3.5,1.38-3.76,0-5.48-3.88-5.63-1.28,0-2.71.14-3.78-.9a3.64,3.64,0,0,1-.72-4.16c.66-1.89,1.85-.37,2.83-.33a91.55,91.55,0,0,0,14.43-.49c1.32-.16,3.37-1,3.61,1.3.2,2-.08,4.44-2.76,4.46-5.28,0-5,3.29-4.84,7,.23,4.31-.18,8.66.86,12.9.45,1.78.79,3.63-1.47,3.88s-5.78-1-5.32-3.17C434.74,617.16,431.88,611.38,431.26,605.25Z"/><path class="cls-10" d="M357.44,613.21c-3.73,2.91-5.55,5.77-5.44,9.75,0,1.44.16,3.24-2.14,3.08-2.12-.16-2.17-1.83-1.95-3.32a47.4,47.4,0,0,0,.07-10.38c-.08-1-.72-2.52.94-2.87a2.07,2.07,0,0,1,2.35,1.44c1,3.17,2.4,1.8,4.29.75,4-2.23,6.05-.87,6.55,3.73.25,2.33-.62,4.77,1.21,7,1.23,1.53-.71,2.76-1.81,3.4-1.72,1-2.87-.26-3.21-1.88a38.26,38.26,0,0,1-.41-4.92C357.77,617.42,357.64,615.81,357.44,613.21Z"/><path class="cls-10" d="M663.33,613.09c-3.35,3.16-5.52,5.68-5.32,9.6.07,1.35.4,3.34-1.9,3.32-2.45,0-2.4-2-2.2-3.65a46,46,0,0,0,.07-10.42c-.09-.84-.59-2.17.8-2.48a2.05,2.05,0,0,1,2.46,1.23c.87,3,2.21,2.19,4.26,1,4.06-2.27,6.09-1,6.61,3.55.28,2.35-.6,4.82,1.2,7.09,1.28,1.62-.66,2.75-1.76,3.41-1.84,1.12-2.93-.38-3.17-1.9C663.88,620.68,663.73,617.41,663.33,613.09Z"/><path class="cls-10" d="M495,620.18c-2.28-2.56-8.08-.18-8.12-5.61,0-2,.74-4,3.05-4.7a9.85,9.85,0,0,1,9.74,1.73c-3.72.73-7,.71-9.73,3.56a59.27,59.27,0,0,1,7.1,2.11c2.62,1.15,3.82,3.17,2.15,6-2,3.35-11,3.93-13.48.91-.56-.68-1.07-1.45-.3-2.13a3.58,3.58,0,0,1,2.23-.93C492.65,621.35,492.65,621.39,495,620.18Z"/><path class="cls-10" d="M570,614.89c-.17-1.15-.2-2.56-1.75-2.57s-1.77,1.32-1.81,2.52c-.08,3-.24,6-.06,8.95.08,1.36.77,2.91-1.16,3.06-1.5.11-2.2-1.4-2.29-2.78-.14-2.16,0-4.33-.09-6.49-.08-2,.87-4.42-2.18-5.33a1.18,1.18,0,0,1-.33-2c3.35-2.86,4-6.39,3.34-10.58-.24-1.53,1.62-2,2.91-1.62,1.92.57,4.69.49,4.41,3.64-.15,1.69-1.06,1.75-2.3.67-.72-.62-1.67-.59-1.68.68,0,2-1.78,4.84.88,5.69,3.67,1.18,3.49,3.41,3,6.17C570.62,615.38,570.32,615.39,570,614.89Z"/><path class="cls-10" d="M411.42,611.71c-3.6.56-6.8.61-9.64,3.54a66.17,66.17,0,0,1,6.76,1.8c3.41,1.29,4.25,4.62,2,7.1s-10.16,2.67-12.54.32c-.59-.57-1.42-1.3-.78-2.06s2.2-1.48,2.4-1.28c2.94,3,4.93-.32,7.93-.71-3.53-2.71-11.46-.77-8.12-8.55C400.82,608.55,406.35,608.46,411.42,611.71Z"/><path class="cls-10" d="M319.28,611.78c-3.47.58-6.9.36-9.48,3.38a57.75,57.75,0,0,1,7.25,2.26c3.1,1.42,3.32,4,1.52,6.56-2,2.79-10.62,2.86-12.88.32-.59-.66-1.13-1.43-.45-2.14.53-.56,1.91-1.25,2.12-1,2.86,2.75,4.94-.18,7.77-.65-2.65-2.92-8.74-.49-8.53-6.21a4.42,4.42,0,0,1,3.33-4.45C313.18,609,316.37,608.71,319.28,611.78Z"/><path class="cls-10" d="M643.6,610.27c-4.08,2.33-5.59,5.55-3.73,10,.61,1.46,1.49,2.94,3.27,2.2a7.18,7.18,0,0,0,4.51-6.66c0-2.57-2.18-1-3.45-.94-.78,0-1.78.56-2.18-.44s.33-1.83,1.19-2.47a4.74,4.74,0,0,1,7.62,2.26c1.69,4.51-1.28,10.34-5.9,11.59a7.19,7.19,0,0,1-8.9-5.15C634.8,615.4,637.83,611,643.6,610.27Z"/><path class="cls-10" d="M553.63,620.6c-3.23-2.78-8.39-.79-8.79-5.75-.15-1.79.37-3.83,2.29-4.64,3.35-1.41,6.67-1.36,10.49,1.27-3.67,1-7.2.6-9.59,3.86a66.09,66.09,0,0,1,6.76,1.76,4.27,4.27,0,0,1,3.11,4.11,4.12,4.12,0,0,1-3.1,4.06c-3.74,1.08-7.45,1.66-10.87-.93-.68-.51-1.32-1.25-.81-2.07a1.6,1.6,0,0,1,2.16-.62C548.3,623.85,550.41,621,553.63,620.6Z"/><path class="cls-10" d="M609,619.4c-1.17,5.35-5,7.64-10,6.59-3.68-.76-5-3.8-4.17-9.27.66-4.13,6.19-8.3,10.48-7.17,3.27.86,4.22,3.78,3.38,7.27-2.13-.69-2.76-3.72-5.6-2.72s-7.32,5.77-6.08,7c2.36,2.42,5.17.76,7.75-.11C606,620.6,607.23,620.08,609,619.4Z"/><path class="cls-10" d="M626,619.11c-1.45,5.58-5.56,8.13-10.53,6.79-4-1.07-4.83-4.13-4.22-7.78.89-5.37,5.94-9.46,10.87-8.35,3.4.77,3.71,3.69,3.16,7.24-2-1.13-2.9-4.1-5.68-2.8a12.35,12.35,0,0,0-5.24,4.42c-.49.75-1.4,1.56-.81,2.67s1.68.9,2.64.9C619.6,622.19,622.52,620.58,626,619.11Z"/><path class="cls-10" d="M527.34,602.87a4.13,4.13,0,0,1,1.37.89c1.8,2.43.26,6.74,4.4,7.9-.19.61-.21,1.61-.6,1.78-4.39,1.93-2.55,5-1.41,7.8.56,1.39,1.58,2.61.38,4.13a2,2,0,0,1-2.68.44c-1.47-.76-2.95-1.59-2.85-3.66a21.72,21.72,0,0,0,0-4.49c-.21-1.28,1.48-3.93-2.23-3.25-1.07.19-1-2.69-.63-2.83,4-1.46,2.64-4.73,2.79-7.49C525.88,603.35,526.2,602.87,527.34,602.87Z"/><path class="cls-10" d="M333.07,434a4.88,4.88,0,0,1-4.46-7,20.63,20.63,0,0,1,6-7.24c2.54-2.14,4.28-.06,6,1.26,2.4,1.81-.3,2.64-.92,3.83q-1.86,3.5-3.89,6.92C335.16,432.85,334.85,434.45,333.07,434Z"/><path class="cls-10" d="M338.94,610.78c-.82,1.3-3.63,1.41-2.75,3.56.62,1.52,2.37.36,3.55.16,2.09-.34,2.39.63,1.88,2.24-.83,2.6-2,5.13-4.85,5.9-1.79.48-2.66-1.2-3.16-2.57-1.12-3-1-5.86,1.73-8.13,1.4-1.18,1.36-1.23.63-2.19a9.47,9.47,0,0,0-5.73,5.82c-1.6,4.56.7,9.33,4.9,10.33,4.35,1,9-2.15,9.94-6.8C346.06,614.23,343.89,611.29,338.94,610.78Z"/><path class="cls-10" d="M279.24,612c-2.61-2.35-5.55-4-8.36-.06-.34,2,.36,1.88,2.07,1.4a3.87,3.87,0,0,1,4.46,2.32c.87,1.79-.2,3.26-1.45,4.33-1.69,1.46-3.17,3.58-5.7,3.41-1-.06-1.18-1.44-1.06-2.46.26-2.27.56-4.53.84-6.79h0a3.18,3.18,0,0,1-.66.39c-.07,0-.29-.2-.33-.34-.63-2.13-.32-5-3.86-4.83a49.06,49.06,0,0,1,.62,6.48c-.07,2.26-.13,4.56-.32,6.81a42.42,42.42,0,0,0,.59,8.16,2.46,2.46,0,0,0,2.39,2.16c.7.08,1.6-.12,1.37-.85-1.86-5.89,1.93-6.23,6.11-6.67,1.33-.13,2.7-1.29,3.76-2.28C282.58,620.48,282.42,614.87,279.24,612Z"/><path class="cls-10" d="M322.64,618.46c.1-2.13.14-4.27.32-6.4a2.29,2.29,0,0,1,2.3-2.17c1.7,0,1.4,1.41,1.44,2.53a62.46,62.46,0,0,0,.43,8.34c.47,2.69-.9,4.8-2.79,4.88-2.53.12-1.15-2.71-1.49-4.23a13.81,13.81,0,0,1,0-2.95Z"/><path class="cls-10" d="M540,617.76c-1,1.89,1.74,4.52-.71,6.6-.7.58-1.14,1.81-2.34,1.36-.86-.33-1-1.27-1-2.11,0-3.46-.08-6.92-.05-10.37,0-1.85.85-3.53,2.81-3.36,2.22.2,1,2.31,1.23,3.57A30.31,30.31,0,0,1,540,617.76Z"/><path class="cls-10" d="M632.66,617.26c-.09,2.49,1.81,5.22-.74,7.43-.59.51-1,1.42-2,1.16s-1-1.24-1-2c-.05-3.49-.08-7-.06-10.47,0-1.58.43-3.34,2.18-3.42,2.42-.11,1.42,2.08,1.57,3.35A35.2,35.2,0,0,1,632.66,617.26Z"/><path class="cls-10" d="M685.52,610.86a5.54,5.54,0,0,0,1.7-.17c1.67-.49,2,.71,2.36,1.77.53,1.43-.23,2.16-1.48,2.56a17,17,0,0,1-6.81,1c-1.13-.11-3,.75-3-1.38,0-1.61.41-3.44,2.53-3.71A44.2,44.2,0,0,1,685.52,610.86Z"/><path class="cls-10" d="M326.5,601.75c.9.22,1.95.71,1.47,1.58-.87,1.57-.84,4.14-3.42,4.14a1.64,1.64,0,0,1-1.6-2.08C323.51,603.63,324.39,602,326.5,601.75Z"/><path class="cls-10" d="M334.14,607.86c4.66-6.27,4.66-6.27,8.16-5.3C340.09,605.34,337.07,606.53,334.14,607.86Z"/><path class="cls-10" d="M634.11,603.51c-1,1.32-1.19,3.53-3.12,4a1.75,1.75,0,0,1-2-2.16,4.18,4.18,0,0,1,3.06-3.49C633.11,601.59,633.92,602.21,634.11,603.51Z"/><path class="cls-10" d="M541,603.93c-1,1.1-1.08,3.5-3.44,3.31a1.53,1.53,0,0,1-1.42-2.08c.65-1.62,1.37-3.43,3.56-3.38C540.79,601.81,541.48,602.52,541,603.93Z"/><path class="cls-13" d="M454.15,619.68c-2.54-3.53-.71-7.52-1.16-11.27a53.23,53.23,0,0,1,.08-7.36C455.31,607.15,453.51,613.48,454.15,619.68Z"/><path class="cls-10" d="M640.28,607.71c4.45-5.93,4.45-5.93,8-5.3C646.23,605.3,643.18,606.33,640.28,607.71Z"/><path class="cls-10" d="M478,329.8c-3.64-.74-3-3.4-3-5.8-.05-4.66,0-9.33,0-15.68.16-3.48.59-8.63.57-13.79,0-5.47-1.83-6.76-7.29-5.74-2.25.42-3.73-.48-5.15-2.14-3.83-4.5-8.82-6.27-14.66-6a34.77,34.77,0,0,0-16.91,5.47c-12.73,8.05-24,17.54-27.44,33.21-3,13.92,3.78,24.22,15.83,24.57,5,.14,9.47-1.57,13.65-4.07,6.88-4.11,13.53-8.47,17.8-15.63,1-1.74,2.69-3.92,5.2-3,2.67.94.92,3.43,1.11,5.22.8,7.6-1.34,15.2.16,22.85.69,3.52,2.65,5.29,5.92,5.65s6.27-.24,8-3.67a92.47,92.47,0,0,0,7-18.08C479,332,479.88,330.18,478,329.8Zm-17-33.14c-.9,2.84-2.18,5.56-3.21,8.36-6,16.45-21.79,23.72-34.77,24.64-3.31.09-4.79-1.23-3.36-4.89a40,40,0,0,1,8.75-13.23c7.92-8.14,16.75-15.12,27.06-20.07,2.22-1.07,4.41-2,6.46-.11S461.57,295,461,296.66Z"/><path class="cls-10" d="M646.23,466.34a54.36,54.36,0,0,1-24.46,3.19c-4.19-.38-4-3.24-3.92-6.52.08-3.93,2.39-3.34,4.67-2.93,4.63.82,9.18,1.16,13.84,0,2.63-.66,5.31-3.07,8.25-.21.89.87,1.68-.64,2.14-1.41,2.77-4.68.72-11.69-4.75-16.39-5.26-4.52-10.62-4.9-15.21-1.29a31.91,31.91,0,0,1-5.89,3.67,22.32,22.32,0,0,0-8.6,7.39c-6.24,8.88-3.57,22.37,5.15,25.78a37.47,37.47,0,0,0,18.1,2.39c7.21-.83,13.44-7.25,14.41-15.06Zm-24.84-16.68a5.86,5.86,0,0,1,6.76-5.15c3.32.44,6.1,2.41,9,3.89a2.15,2.15,0,0,1,1.43,2.37c-.33,1.15-1.49,1.12-2.5,1.13-2,0-4,0-6,0v0a18.25,18.25,0,0,1-3.47,0C624.72,451.49,621,453.24,621.39,449.66Z"/><path class="cls-14" d="M379,433.75c-2.82,0-5.69.44-8.44,0-4.64-.66-7,1.42-8.67,5.46-2.91,6.9-2.6,12.91,1.5,16.41,3.41,2.9,7.81,1.87,11.81,2.59-3.55,3.53-10.06,3.36-13-.29-6-7.4-6.32-15.65-.17-22.72,4.24-4.88,10-5,15.86-3.44,1.2-2.69,2.69-5.57-2.34-5.62-15.07-.14-24.36,6.38-22.31,23.39,1.49,12.33,16.46,20.82,27.48,12.37C391.18,453.89,390.69,439.49,379,433.75Zm3.13,16.05c-.9,2.41-1.67,5.08-5.38,6.72,2.49-3.5,3.74-6.34,3.48-9.67-.21-2.73-1.26-4.86-4.17-5.46s-5.36.16-6.92,2.66c-1.1,1.76-2.46,4.25,0,5.66s4-.48,4.82-3.08c1.81,3.37-.38,5-2.74,6.29s-4.08.16-5.14-2.21c-1.86-4.2-.5-7.89,2.31-10.85,2.32-2.43,9.62-2.17,12.68.33C384.27,442.85,383.36,446.49,382.12,449.8Z"/><path class="cls-10" d="M300.22,611.72c-.12-.08-.35,0-.48-.08-6-3.46-14.79.9-15.79,7.88-.64,4.47,2.46,6.93,6.73,5.24,2.3-.92,4-2.78,6.37-5.37a48.31,48.31,0,0,0,.06,6.54c.26,1.67,1.41,2.76,3.22,1.68C302.58,626.26,302.44,613.17,300.22,611.72Zm-12.52,9.64c2.07-4.62,5.55-7.25,10-9.1C297.16,618.67,294.14,621.51,287.7,621.36Z"/><path class="cls-10" d="M519.55,612.37c0-1-1.69-.5-2.64-.55l.08.08-.11,0c-1.16,4.17-2.66,8.06-7.39,9.49-1,.29-2,.84-2.77,0-1.05-1.14.13-2.19.76-3a18.47,18.47,0,0,1,9.4-6.56l0-.12h0c-4.37-3.58-12.9.45-14.37,6.92-.45,2-.62,4.2,1.12,5.58a5.13,5.13,0,0,0,6.09,0,71.77,71.77,0,0,0,6-4.74c-.17,2.23-.37,3.79-.37,5.34,0,1.32.23,2.69,1.88,3s1.9-1.12,2.31-2.09C521.47,621.39,519.67,616.87,519.55,612.37Z"/><path class="cls-10" d="M591.08,612.86c-.15-1.76-1.91-1.18-3.16-1.06-.06-2.19-1.82-1.9-3.18-1.93-4.27-.09-10.4,5.27-10.92,9.52-.23,1.85-.29,4,1.31,5.07a5.25,5.25,0,0,0,5.71.08c2-1.26,3.85-2.87,6-4.54v4.33c0,1.49-.23,3.25,1.79,3.57s2.58-1.62,2.63-2.93A96,96,0,0,0,591.08,612.86Zm-12.7,8.8c.47-4.13,3.31-7,9.41-9.68a1,1,0,0,0,0-.17l.12.11-.14.06C586.93,618.47,584.77,620.68,578.38,621.66Z"/><path class="cls-10" d="M384.23,621.91c-1.26-.06-2.24-.2-2.25-1.89,0-2,1.11-1.93,2.59-1.86a25.36,25.36,0,0,0,5.44-.25c1.31-.23,3.23.85,3.84-1.26a4.86,4.86,0,0,0-1.35-5c-2.95-2.84-5.86-3.44-8.55.28-4.88,1.14-6.14,4.73-5.47,9,.77,4.94,4.86,5.26,8.82,5.35s6.41-1.94,8-6.43A22,22,0,0,1,384.23,621.91Zm-.25-10s0,.07,0,.1c3.3.1,3.32.13,5.8,2.3-5.69,1.23-6.07,1.1-5.8-2.3h-.09Z"/><path class="cls-10" d="M177.79,621.93c-1.6-.08-3.18-.12-3.07-2.25s1.68-1.81,3-1.44c1.87.52,3.6-.14,5.39-.34,4-.44,4.94-2.49,2.69-5.8-2.14-3.15-5.64-3.25-8.75-.27-4.68.82-6.18,4.21-6,8.28s3.37,5.72,7.2,6.08c4.51.42,8.12-.59,9.49-6A26.19,26.19,0,0,1,177.79,621.93Zm-.87-10,.11-.1v.1c2.12,0,4.21.05,6,2.53-2.36.64-4.56,1-6.52,0-.91-.46.6-1.55.56-2.51Z"/></svg>